<svg width="95" height="25" viewBox="0 0 95 25" fill="none" xmlns="http://www.w3.org/2000/svg">
<g clip-path="url(#clip0_211_73)">
<path d="M20.5 6C20.7652 6 21.0196 6.10536 21.2071 6.29289C21.3946 6.48043 21.5 6.73478 21.5 7C21.5 7.26522 21.3946 7.51957 21.2071 7.70711C21.0196 7.89464 20.7652 8 20.5 8H19.5L19.497 8.071L18.564 21.142C18.5281 21.6466 18.3023 22.1188 17.9321 22.4636C17.5619 22.8083 17.0749 23 16.569 23H8.43C7.92414 23 7.43707 22.8083 7.06688 22.4636C6.6967 22.1188 6.47092 21.6466 6.435 21.142L5.502 8.072C5.50048 8.04803 5.49982 8.02402 5.5 8H4.5C4.23478 8 3.98043 7.89464 3.79289 7.70711C3.60536 7.51957 3.5 7.26522 3.5 7C3.5 6.73478 3.60536 6.48043 3.79289 6.29289C3.98043 6.10536 4.23478 6 4.5 6H20.5ZM14.5 3C14.7652 3 15.0196 3.10536 15.2071 3.29289C15.3946 3.48043 15.5 3.73478 15.5 4C15.5 4.26522 15.3946 4.51957 15.2071 4.70711C15.0196 4.89464 14.7652 5 14.5 5H10.5C10.2348 5 9.98043 4.89464 9.79289 4.70711C9.60536 4.51957 9.5 4.26522 9.5 4C9.5 3.73478 9.60536 3.48043 9.79289 3.29289C9.98043 3.10536 10.2348 3 10.5 3H14.5Z" fill="black"/>
</g>
<path d="M27.3178 20V5.3H33.3028C34.8708 5.3 36.2428 5.615 37.4188 6.245C38.6088 6.861 39.5328 7.722 40.1908 8.828C40.8488 9.934 41.1778 11.208 41.1778 12.65C41.1778 14.092 40.8488 15.366 40.1908 16.472C39.5328 17.578 38.6088 18.446 37.4188 19.076C36.2428 19.692 34.8708 20 33.3028 20H27.3178ZM28.8718 18.656H33.2188C34.5208 18.656 35.6478 18.404 36.5998 17.9C37.5658 17.382 38.3148 16.675 38.8468 15.779C39.3788 14.869 39.6448 13.826 39.6448 12.65C39.6448 11.46 39.3788 10.417 38.8468 9.521C38.3148 8.625 37.5658 7.925 36.5998 7.421C35.6478 6.903 34.5208 6.644 33.2188 6.644H28.8718V18.656ZM49.0354 20.105C47.8874 20.105 46.8794 19.867 46.0114 19.391C45.1434 18.901 44.4644 18.236 43.9744 17.396C43.4844 16.542 43.2394 15.569 43.2394 14.477C43.2394 13.385 43.4704 12.419 43.9324 11.579C44.4084 10.739 45.0524 10.081 45.8644 9.605C46.6904 9.115 47.6144 8.87 48.6364 8.87C49.6724 8.87 50.5894 9.108 51.3874 9.584C52.1994 10.046 52.8364 10.704 53.2984 11.558C53.7604 12.398 53.9914 13.371 53.9914 14.477C53.9914 14.547 53.9844 14.624 53.9704 14.708C53.9704 14.778 53.9704 14.855 53.9704 14.939H44.3734V13.826H53.1724L52.5844 14.267C52.5844 13.469 52.4094 12.762 52.0594 12.146C51.7234 11.516 51.2614 11.026 50.6734 10.676C50.0854 10.326 49.4064 10.151 48.6364 10.151C47.8804 10.151 47.2014 10.326 46.5994 10.676C45.9974 11.026 45.5284 11.516 45.1924 12.146C44.8564 12.776 44.6884 13.497 44.6884 14.309V14.54C44.6884 15.38 44.8704 16.122 45.2344 16.766C45.6124 17.396 46.1304 17.893 46.7884 18.257C47.4604 18.607 48.2234 18.782 49.0774 18.782C49.7494 18.782 50.3724 18.663 50.9464 18.425C51.5344 18.187 52.0384 17.823 52.4584 17.333L53.2984 18.299C52.8084 18.887 52.1924 19.335 51.4504 19.643C50.7224 19.951 49.9174 20.105 49.0354 20.105ZM57.0263 20V4.418H58.5173V20H57.0263ZM67.3489 20.105C66.2009 20.105 65.1929 19.867 64.3249 19.391C63.4569 18.901 62.7779 18.236 62.2879 17.396C61.7979 16.542 61.5529 15.569 61.5529 14.477C61.5529 13.385 61.7839 12.419 62.2459 11.579C62.7219 10.739 63.3659 10.081 64.1779 9.605C65.0039 9.115 65.9279 8.87 66.9499 8.87C67.9859 8.87 68.9029 9.108 69.7009 9.584C70.5129 10.046 71.1499 10.704 71.6119 11.558C72.0739 12.398 72.3049 13.371 72.3049 14.477C72.3049 14.547 72.2979 14.624 72.2839 14.708C72.2839 14.778 72.2839 14.855 72.2839 14.939H62.6869V13.826H71.4859L70.8979 14.267C70.8979 13.469 70.7229 12.762 70.3729 12.146C70.0369 11.516 69.5749 11.026 68.9869 10.676C68.3989 10.326 67.7199 10.151 66.9499 10.151C66.1939 10.151 65.5149 10.326 64.9129 10.676C64.3109 11.026 63.8419 11.516 63.5059 12.146C63.1699 12.776 63.0019 13.497 63.0019 14.309V14.54C63.0019 15.38 63.1839 16.122 63.5479 16.766C63.9259 17.396 64.4439 17.893 65.1019 18.257C65.7739 18.607 66.5369 18.782 67.3909 18.782C68.0629 18.782 68.6859 18.663 69.2599 18.425C69.8479 18.187 70.3519 17.823 70.7719 17.333L71.6119 18.299C71.1219 18.887 70.5059 19.335 69.7639 19.643C69.0359 19.951 68.2309 20.105 67.3489 20.105ZM78.8257 20.105C77.7897 20.105 76.9917 19.825 76.4317 19.265C75.8717 18.705 75.5917 17.914 75.5917 16.892V6.539H77.0827V16.808C77.0827 17.452 77.2437 17.949 77.5657 18.299C77.9017 18.649 78.3777 18.824 78.9937 18.824C79.6517 18.824 80.1977 18.635 80.6317 18.257L81.1567 19.328C80.8627 19.594 80.5057 19.79 80.0857 19.916C79.6797 20.042 79.2597 20.105 78.8257 20.105ZM73.6177 10.214V8.975H80.4427V10.214H73.6177ZM88.1643 20.105C87.0163 20.105 86.0083 19.867 85.1403 19.391C84.2723 18.901 83.5933 18.236 83.1033 17.396C82.6133 16.542 82.3683 15.569 82.3683 14.477C82.3683 13.385 82.5993 12.419 83.0613 11.579C83.5373 10.739 84.1813 10.081 84.9933 9.605C85.8193 9.115 86.7433 8.87 87.7653 8.87C88.8013 8.87 89.7183 9.108 90.5163 9.584C91.3283 10.046 91.9653 10.704 92.4273 11.558C92.8893 12.398 93.1203 13.371 93.1203 14.477C93.1203 14.547 93.1133 14.624 93.0993 14.708C93.0993 14.778 93.0993 14.855 93.0993 14.939H83.5023V13.826H92.3013L91.7133 14.267C91.7133 13.469 91.5383 12.762 91.1883 12.146C90.8523 11.516 90.3903 11.026 89.8023 10.676C89.2143 10.326 88.5353 10.151 87.7653 10.151C87.0093 10.151 86.3303 10.326 85.7283 10.676C85.1263 11.026 84.6573 11.516 84.3213 12.146C83.9853 12.776 83.8173 13.497 83.8173 14.309V14.54C83.8173 15.38 83.9993 16.122 84.3633 16.766C84.7413 17.396 85.2593 17.893 85.9173 18.257C86.5893 18.607 87.3523 18.782 88.2063 18.782C88.8783 18.782 89.5013 18.663 90.0753 18.425C90.6633 18.187 91.1673 17.823 91.5873 17.333L92.4273 18.299C91.9373 18.887 91.3213 19.335 90.5793 19.643C89.8513 19.951 89.0463 20.105 88.1643 20.105Z" fill="black"/>
<defs>
<clipPath id="clip0_211_73">
<rect width="24" height="24" fill="white" transform="translate(0.5 1)"/>
</clipPath>
</defs>
</svg>
