<svg width="19" height="20" viewBox="0 0 19 20" fill="none" xmlns="http://www.w3.org/2000/svg">
<path d="M17.5 3C17.7652 3 18.0196 3.10536 18.2071 3.29289C18.3946 3.48043 18.5 3.73478 18.5 4C18.5 4.26522 18.3946 4.51957 18.2071 4.70711C18.0196 4.89464 17.7652 5 17.5 5H16.5L16.497 5.071L15.564 18.142C15.5281 18.6466 15.3023 19.1188 14.9321 19.4636C14.5619 19.8083 14.0749 20 13.569 20H5.43C4.92414 20 4.43707 19.8083 4.06688 19.4636C3.6967 19.1188 3.47092 18.6466 3.435 18.142L2.502 5.072C2.50048 5.04803 2.49982 5.02402 2.5 5H1.5C1.23478 5 0.98043 4.89464 0.792893 4.70711C0.605357 4.51957 0.5 4.26522 0.5 4C0.5 3.73478 0.605357 3.48043 0.792893 3.29289C0.98043 3.10536 1.23478 3 1.5 3H17.5ZM11.5 0C11.7652 0 12.0196 0.105357 12.2071 0.292893C12.3946 0.48043 12.5 0.734784 12.5 1C12.5 1.26522 12.3946 1.51957 12.2071 1.70711C12.0196 1.89464 11.7652 2 11.5 2H7.5C7.23478 2 6.98043 1.89464 6.79289 1.70711C6.60536 1.51957 6.5 1.26522 6.5 1C6.5 0.734784 6.60536 0.48043 6.79289 0.292893C6.98043 0.105357 7.23478 0 7.5 0H11.5Z" fill="black"/>
</svg>
