<svg width="26" height="25" viewBox="0 0 26 25" fill="none" xmlns="http://www.w3.org/2000/svg">
<path d="M24.25 23.75L18.8213 18.3213M18.8213 18.3213C19.7499 17.3927 20.4865 16.2902 20.989 15.0769C21.4916 13.8637 21.7503 12.5633 21.7503 11.25C21.7503 9.93676 21.4916 8.63637 20.989 7.42308C20.4865 6.20979 19.7499 5.10737 18.8213 4.17876C17.8927 3.25015 16.7902 2.51354 15.5769 2.01098C14.3637 1.50842 13.0633 1.24976 11.75 1.24976C10.4368 1.24976 9.13637 1.50842 7.92308 2.01098C6.70979 2.51354 5.60737 3.25015 4.67876 4.17876C2.80335 6.05418 1.74976 8.59778 1.74976 11.25C1.74976 13.9022 2.80335 16.4459 4.67876 18.3213C6.55418 20.1967 9.09778 21.2503 11.75 21.2503C14.4022 21.2503 16.9459 20.1967 18.8213 18.3213Z" stroke="black" stroke-width="2" stroke-linecap="round" stroke-linejoin="round"/>
</svg>
